<svg xmlns="http://www.w3.org/2000/svg" width="1600" height="980" viewBox="0 0 1600 980" fill="none">
<rect width="1600" height="980" fill="#F6F1EA"/>
<circle cx="1240" cy="230" r="180" fill="#C0392B" opacity=".10"/>
<circle cx="1280" cy="680" r="230" fill="#D8C3A5" opacity=".18"/>
<circle cx="250" cy="770" r="170" fill="#FFFFFF" opacity=".65"/>
<rect x="1000" y="132" width="420" height="530" rx="34" fill="#FFFDF9" stroke="#E4DED6"/>
<rect x="1042" y="174" width="120" height="168" rx="24" fill="#E8C9C2"/>
<rect x="1190" y="174" width="176" height="34" rx="17" fill="#151515"/>
<rect x="1190" y="230" width="140" height="16" rx="8" fill="#C0392B"/>
<rect x="1190" y="260" width="102" height="16" rx="8" fill="#D8C3A5"/>
<rect x="1190" y="290" width="150" height="16" rx="8" fill="#E4DED6"/>
<rect x="1042" y="388" width="324" height="98" rx="22" fill="#F6F1EA"/>
<rect x="1042" y="518" width="324" height="104" rx="22" fill="#151515"/>
<rect x="1228" y="558" width="100" height="10" rx="5" fill="#C0392B"/>
<rect x="1228" y="582" width="72" height="10" rx="5" fill="#D8C3A5"/>
<path d="M88 782C292 654 486 674 676 552C792 477 878 372 986 314" stroke="#C0392B" stroke-width="12" stroke-linecap="round"/>
<path d="M88 834C292 734 500 768 724 648C814 600 882 545 966 486" stroke="#D8C3A5" stroke-width="4" stroke-linecap="round"/>
<text x="112" y="170" font-family="Arial" font-size="16" font-weight="700" letter-spacing="4" fill="#C0392B">CREATOR MARKETING SERVICE</text>
<text x="112" y="278" font-family="Arial" font-size="86" font-weight="800" fill="#151515">达人营销，</text>
<text x="112" y="376" font-family="Arial" font-size="86" font-weight="800" fill="#151515">不只是找达人。</text>
<text x="112" y="450" font-family="Arial" font-size="28" fill="#666666">让品牌达人合作，变成可执行、可复盘的内容增长。</text>
<rect x="112" y="530" width="180" height="56" rx="28" fill="#C0392B"/>
<rect x="308" y="530" width="180" height="56" rx="28" stroke="#C0392B" fill="none"/>
<text x="156" y="567" font-family="Arial" font-size="20" font-weight="700" fill="#FFFDF9">获取方案</text>
<text x="350" y="567" font-family="Arial" font-size="20" font-weight="700" fill="#C0392B">联系商务</text>
<text x="112" y="636" font-family="Arial" font-size="18" fill="#151515">小红书种草</text>
<text x="272" y="636" font-family="Arial" font-size="18" fill="#151515">抖音达人合作</text>
<text x="474" y="636" font-family="Arial" font-size="18" fill="#151515">达人分销</text>
<text x="624" y="636" font-family="Arial" font-size="18" fill="#151515">短剧宣发</text>
</svg>