<svg xmlns="http://www.w3.org/2000/svg" width="600" height="1067" viewBox="0 0 600 1067">
<defs>
  <linearGradient id="bg" x1="0" y1="0" x2="0.4" y2="1">
    <stop offset="0" stop-color="#2A0E0B"/><stop offset="1" stop-color="#7E1F16"/>
  </linearGradient>
  <radialGradient id="glow" cx="0.7" cy="0.18" r="0.7">
    <stop offset="0" stop-color="#E8462F" stop-opacity="0.38"/><stop offset="0.6" stop-color="#E8462F" stop-opacity="0"/>
  </radialGradient>
  <radialGradient id="vig" cx="0.5" cy="0.42" r="0.75">
    <stop offset="0.55" stop-color="#000" stop-opacity="0"/><stop offset="1" stop-color="#000" stop-opacity="0.5"/>
  </radialGradient>
  <linearGradient id="scrim" x1="0" y1="0.5" x2="0" y2="1">
    <stop offset="0" stop-color="#000" stop-opacity="0"/><stop offset="1" stop-color="#000" stop-opacity="0.86"/>
  </linearGradient>
</defs>
<rect width="600" height="1067" fill="url(#bg)"/>
<rect width="600" height="1067" fill="url(#glow)"/>
<g opacity=".18" fill="none" stroke="#fff" stroke-width="6" stroke-linejoin="round">
          <path d="M150 360 L150 250 L230 320 L300 220 L370 320 L450 250 L450 360 Z"/>
        </g>
        <path d="M300 215 L312 340 L300 470 L288 340 Z" fill="#E8462F" opacity=".5"/>
<rect width="600" height="1067" fill="url(#vig)"/>
<rect x="0" y="470" width="600" height="597" fill="url(#scrim)"/>
<!-- studio mark -->
<text x="40" y="62" font-family="Arial,Helvetica,sans-serif" font-size="19" letter-spacing="3" fill="#fff" fill-opacity="0.82" font-weight="700">比昨个好 出品</text>
<text x="40" y="86" font-family="Arial,Helvetica,sans-serif" font-size="12" letter-spacing="4" fill="#fff" fill-opacity="0.55">BIZUOGEHAO STUDIO</text>
<!-- genre pill -->
<rect x="40" y="700" rx="16" ry="16" width="96" height="34" fill="#ffffff" fill-opacity="0.16"/>
<text x="88.0" y="723" font-family="'PingFang SC','Microsoft YaHei','Noto Sans CJK SC','Noto Sans SC',sans-serif" font-size="17" fill="#fff" text-anchor="middle">复仇逆袭</text>
<!-- accent rule -->
<rect x="40" y="762" width="54" height="4" fill="#E8462F"/>
<!-- CN title -->
<text x="38" y="850" font-family="'PingFang SC','Microsoft YaHei','Noto Sans CJK SC','Noto Sans SC',sans-serif" font-size="78" font-weight="800" fill="#fff" letter-spacing="2">弃子归来</text>
<!-- EN title -->
<text x="40" y="896" font-family="Georgia,'Times New Roman','Songti SC',serif" font-style="italic" font-size="33" fill="#E8462F">Heir to Nothing</text>
<!-- meta -->
<text x="40" y="936" font-family="Arial,Helvetica,sans-serif" font-size="16" letter-spacing="1.5" fill="#fff" fill-opacity="0.8">EP 01  ·  竖屏短剧 9:16</text>
<polygon points="540,914 540,938 562,926" fill="#fff" fill-opacity="0.9"/>
<circle cx="551" cy="926" r="22" fill="none" stroke="#fff" stroke-opacity="0.6" stroke-width="2"/>
</svg>